<svg xmlns="http://www.w3.org/2000/svg" width="64" height="64" viewBox="0 0 150 150">
  <rect width="150" height="150" rx="32" fill="#223c36"/>
  <g fill="#c9dd44" transform="translate(13,18) scale(0.82)">
  <path d="M115.7,53.3C117.7,49.3 115.5,43.7 111.1,41.7C112.7,36.6 108.7,30.2 102.1,28.5C106.6,16.9 97.6,8.9 88.1,11.5C85.4,6.6 80.5,2.3 73.2,2.4C68.1,2.4 61.6,5.4 57.8,11.7L56.6,11.7C48.4,11.7 41.9,18.3 42.5,25.8C42.6,26.9 43,27.9 43.3,29.1C38.1,30 35.1,32.9 34.3,37.3C33.5,41.7 35.1,42.5 35,42.5C31.4,44.1 28.3,48.4 29.7,53.4C26.6,55.3 23.5,59.6 23.5,65.8C24,74.1 31.5,81.7 42.9,78.4C45.4,83.9 53.8,88.3 63.2,83L63.2,102.4C57.5,99.7 51,95.7 42.4,95.6C37.8,95.6 33.3,96.9 29.2,99.6L29.2,108.2C32.8,104.9 37.1,103.6 42,103.5C51.3,103.4 57.8,109.4 66.6,112.2C67.9,112.7 69.6,113.2 70.5,113.3L71.2,113.3L71.2,70.3C67.1,75.4 60.6,77.2 55.4,75.9C52.3,75.1 47.8,72.8 46,68.8C41.9,73.5 34.6,72.4 33.7,65.8C33.5,62.4 35.9,58.7 39.6,57.9C34.5,53.4 36.7,46.8 44.1,47C40,40.9 44.7,34.4 53.2,34.7C48.4,28.7 51,22.4 56,19.7C58.3,18.4 60.9,18.1 63.7,19.1C64.3,14.6 68.6,11.4 72.9,11.4C76.9,11.4 81.3,13.6 81.9,19.2C87.1,16.6 94,18.9 95.1,25.4C95.5,28.7 94.5,32 92.8,34.1C98.6,33.7 104.1,38.6 101.6,45.8L101,45.9C104.6,45.5 109.2,49.3 107.2,54.1L105.7,56.3C110.6,56.6 112.7,61.6 111.5,65.4C109.7,70.2 103.2,72.9 99.2,67.9C97.8,73.1 92.1,76.1 86.8,76.1C82.8,76.2 77.7,74.4 75,70.6L75,113.8C82.6,113.5 87.9,109.7 93,107.2C96.5,105.5 100,103.9 105,103.9C108.7,103.9 112.7,104.8 116.5,107.9L116.5,99.6C113.4,97.1 110,95.9 104,95.9C97.9,95.9 90.9,99.3 82.6,103.1L82.6,83.6C84.5,84.5 86.4,85.6 89.9,85.6C96.2,85.6 100.9,82.4 102.9,78.3C112.6,81 121.7,76.6 122.1,65.8C122.1,61.4 120,55.6 115.7,53.3Z" style="fill-rule:nonzero;"/>
  <path d="M90.9,111.6C86.7,114 81.5,117.1 74.3,117.2C67.4,117.2 62.2,115 57.2,111.9C53,109.3 48.8,106.4 42.2,106.4C37.4,106.4 33.4,107.7 29.2,110.9L29.2,120.1C32.4,116.9 37,114.5 41.8,114.5C49.8,114.4 54.1,117.9 60,120.5C64.1,122.5 68.1,125.3 78.2,125C84.4,124.3 89.8,121.5 92.6,119.8C96.5,117.7 100.6,115 105.6,114.9C109.2,114.8 113.6,115.6 116.6,120L116.6,111C114.1,108.5 110.4,106.7 104,106.7C98.6,106.9 94.4,109.3 90.9,111.4L90.9,111.6Z" style="fill-rule:nonzero;"/>
  <path d="M73.4,128.6C66.5,128.6 61.5,126.2 55.9,123C52,120.5 47.6,117.9 41.6,117.7C36.5,117.6 33,119.3 29.2,123L29.2,132.4C32.4,129.3 36.1,126.7 39.9,126.2C45.9,125.5 50.7,127.6 55,129.8C60.1,132.5 64.9,135.9 73.4,135.9C80,135.9 85.1,134 89.6,131.7C93.9,129.3 99.1,126.6 103.9,126.6C108.5,126.4 112.4,128.1 116.5,132.4L116.6,123.1C113.7,120.5 109.5,118.1 103.9,118.2C98.5,118.5 95.1,120 90,122.9C86.1,125.3 80.9,128.4 73.4,128.6Z" style="fill-rule:nonzero;"/>
  </g>
</svg>
